<?xml version="1.0" standalone="no"?>
<!DOCTYPE svg PUBLIC "-//W3C//DTD SVG 20010904//EN"
 "http://www.w3.org/TR/2001/REC-SVG-20010904/DTD/svg10.dtd">
<svg version="1.0" xmlns="http://www.w3.org/2000/svg"
 width="500.000000pt" height="750.000000pt" viewBox="0 0 500.000000 750.000000"
 preserveAspectRatio="xMidYMid meet">

<g transform="translate(0.000000,750.000000) scale(0.100000,-0.100000)"
fill="#000000" stroke="none">
<path d="M2245 7013 c-84 -11 -207 -48 -303 -89 -59 -26 -112 -51 -118 -56 -7
-5 -21 -11 -33 -13 -30 -6 -86 -66 -100 -106 -8 -26 -27 -45 -75 -77 -34 -22
-80 -60 -101 -83 l-37 -42 -42 13 c-96 28 -167 89 -186 160 -25 92 -90 114
-335 115 -204 0 -235 -5 -280 -50 -44 -45 -51 -84 -31 -181 35 -169 60 -188
261 -192 l140 -4 138 56 c76 31 145 56 153 56 8 0 51 -12 94 -26 l80 -27 0
-68 c0 -67 0 -68 55 -136 64 -79 85 -119 85 -160 0 -25 -8 -34 -47 -57 -27
-15 -40 -25 -30 -22 10 3 87 22 170 43 137 32 156 40 190 72 39 37 49 32 17
-9 -21 -26 -27 -56 -10 -45 15 9 12 -6 -4 -19 -7 -6 -26 -42 -41 -80 -15 -38
-31 -77 -36 -85 -9 -17 -42 -95 -52 -124 -5 -14 -11 -16 -26 -7 -11 5 -27 7
-35 4 -18 -7 -22 -24 -5 -24 5 0 7 -5 3 -11 -4 -8 -9 -7 -14 2 -6 9 -12 9 -24
-4 -15 -14 -14 -17 6 -31 12 -9 20 -17 17 -19 -33 -26 -71 -48 -76 -43 -3 3
-11 2 -17 -3 -7 -6 -17 -5 -27 2 -19 14 -19 15 -19 65 0 25 -3 33 -9 23 -7
-10 -11 -8 -16 10 -8 24 -22 39 -39 39 -4 0 -5 -10 -1 -22 4 -13 12 -45 20
-73 7 -27 17 -49 23 -48 6 2 9 -4 6 -12 -4 -8 -1 -15 5 -15 6 0 8 -7 5 -15 -8
-20 -31 -19 -38 3 -15 54 10 -78 29 -155 25 -93 77 -209 140 -307 37 -58 60
-79 118 -111 28 -14 37 -26 37 -45 0 -14 3 -42 6 -62 l7 -38 113 0 113 0 7 35
c4 25 15 40 35 50 43 23 49 19 49 -35 l0 -50 269 0 c295 0 281 -3 281 60 0 37
15 46 45 26 18 -12 25 -25 25 -50 l0 -33 122 -6 c68 -3 126 -3 130 -1 5 3 8
34 8 69 l0 64 44 26 c107 62 196 217 257 442 23 89 24 93 0 93 -10 0 -25 8
-32 17 -12 14 -12 16 0 8 10 -5 12 -4 7 4 -4 6 -13 10 -19 9 -16 -4 -142 95
-128 100 6 2 9 8 6 12 -3 5 -11 7 -18 4 -23 -8 -44 27 -102 171 -31 77 -63
145 -72 152 -14 11 -14 14 1 29 16 15 16 18 -5 40 -32 35 -17 40 17 7 23 -23
53 -35 143 -57 63 -15 142 -36 175 -46 57 -18 82 -18 71 0 -3 5 -13 8 -23 7
-21 -1 -112 43 -112 55 0 5 9 4 21 -2 11 -7 24 -8 27 -4 4 4 2 9 -4 11 -6 2
-19 9 -28 16 -25 18 -5 72 53 144 68 84 73 97 69 161 l-3 57 60 24 c102 42
158 33 340 -54 63 -30 163 -40 278 -26 130 15 156 37 188 161 31 122 8 205
-65 243 -76 39 -422 34 -510 -8 -25 -12 -43 -30 -53 -54 -32 -73 -38 -84 -73
-120 -23 -23 -58 -44 -100 -59 -76 -26 -90 -27 -90 -8 0 19 -92 99 -147 128
-24 13 -43 29 -43 36 0 32 -64 121 -88 122 -4 1 -25 9 -47 20 -69 33 -63 22
11 -21 73 -42 104 -82 104 -132 0 -34 -56 -172 -97 -239 -23 -38 -24 -38 -88
-38 -35 0 -66 -3 -69 -8 -2 -4 -7 -27 -11 -50 l-6 -43 95 7 96 7 0 -77 c0 -42
-2 -76 -5 -76 -3 0 -16 6 -28 14 -12 7 -49 16 -83 19 -33 3 -79 14 -102 26
-59 30 -62 26 -8 -14 49 -38 63 -59 21 -31 -14 9 -30 14 -36 11 -5 -4 -8 -1
-7 5 2 7 -6 17 -17 23 -11 6 -37 22 -57 34 -34 21 -42 22 -88 12 -36 -8 -75
-8 -138 0 -54 7 -118 8 -169 3 -53 -5 -101 -4 -137 3 -54 11 -55 11 -39 -7 15
-17 15 -20 3 -28 -8 -6 -20 -10 -25 -10 -6 0 -11 -9 -11 -20 0 -14 7 -20 26
-21 20 -1 19 -3 -10 -9 -19 -5 -36 -6 -37 -2 -2 4 -30 6 -64 5 -42 -1 -66 -7
-80 -19 -10 -9 -19 -12 -19 -6 0 5 23 27 50 47 28 20 50 38 50 40 0 2 -24 -7
-52 -20 -49 -23 -131 -36 -100 -16 24 15 -33 155 -78 194 -41 36 -57 60 -64
103 -3 16 -10 30 -15 32 -6 2 -7 10 -4 19 4 11 3 14 -6 9 -8 -5 -11 -3 -10 5
2 8 -5 31 -14 53 -21 47 -21 56 -1 106 12 30 30 48 74 75 182 111 382 162 653
167 81 2 147 6 147 10 0 8 -289 9 -345 1z m-1101 -204 c55 -15 86 -52 86 -102
0 -76 -97 -218 -181 -264 -49 -26 -263 -26 -331 0 -41 16 -50 25 -74 75 -35
73 -44 183 -20 230 22 42 50 60 116 71 68 12 351 6 404 -10z m3028 -2 c68 -29
90 -98 68 -209 -28 -145 -61 -169 -240 -176 -156 -6 -189 4 -260 78 -53 55
-120 168 -120 203 0 60 57 103 156 116 107 15 351 8 396 -12z m-1409 -564 c-6
-15 -43 -24 -40 -9 1 6 6 14 11 17 5 4 -1 12 -13 18 -12 7 -19 16 -16 22 8 13
63 -33 58 -48z m-416 41 c-3 -3 -12 -4 -19 -1 -8 3 -5 6 6 6 11 1 17 -2 13 -5z
m-54 -21 c-7 -2 -21 -2 -30 0 -10 3 -4 5 12 5 17 0 24 -2 18 -5z m275 0 c-10
-2 -28 -2 -40 0 -13 2 -5 4 17 4 22 1 32 -1 23 -4z m-255 -20 c-7 -2 -19 -2
-25 0 -7 3 -2 5 12 5 14 0 19 -2 13 -5z m492 -3 c3 -6 -1 -7 -9 -4 -18 7 -21
14 -7 14 6 0 13 -4 16 -10z m-275 -4 c0 -2 -8 -10 -17 -17 -16 -13 -17 -12 -4
4 13 16 21 21 21 13z m-293 -12 c-3 -3 -12 -4 -19 -1 -8 3 -5 6 6 6 11 1 17
-2 13 -5z m-107 -176 c-36 -11 -73 -22 -82 -25 -13 -4 -15 0 -11 15 6 23 27
29 108 30 l50 0 -65 -20z m694 -9 c12 -12 15 -19 7 -19 -19 0 -151 41 -151 47
0 13 125 -11 144 -28z m-1074 -294 c0 -2 -6 -5 -13 -8 -8 -3 -14 1 -14 8 0 7
6 11 14 8 7 -3 13 -6 13 -8z m-50 -25 c8 -5 12 -12 9 -15 -8 -8 -39 5 -39 16
0 11 11 11 30 -1z m1125 -50 c3 -5 1 -10 -4 -10 -6 0 -11 5 -11 10 0 6 2 10 4
10 3 0 8 -4 11 -10z m29 -67 l17 -38 -25 30 c-26 31 -32 45 -18 45 5 0 16 -17
26 -37z m204 -23 c25 -15 32 -27 32 -50 0 -35 0 -35 -46 -15 -20 8 -40 13 -44
10 -8 -5 -40 49 -40 67 0 16 65 8 98 -12z m-1198 -10 c23 -7 23 -8 4 -9 -13
-1 -24 -9 -27 -21 -3 -11 -14 -20 -24 -20 -10 0 -24 -5 -31 -12 -23 -23 -13
24 10 49 23 24 29 26 68 13z m890 2 c0 -4 12 -15 27 -24 l27 -16 -33 -19 c-18
-10 -43 -26 -55 -35 l-21 -16 29 -12 c25 -9 38 -7 79 9 69 29 88 27 116 -14
13 -20 22 -37 20 -39 -2 -2 -19 -11 -36 -20 -18 -9 -33 -21 -33 -26 0 -19 -25
-10 -75 25 -27 20 -65 38 -85 41 l-37 6 26 74 c14 41 31 74 38 74 7 0 13 -3
13 -8z m-580 -58 c8 -27 19 -55 23 -62 9 -13 4 -15 -48 -27 -16 -4 -52 -22
-78 -42 l-49 -34 -19 20 c-11 12 -23 21 -27 21 -4 0 -13 4 -21 9 -11 7 -11 13
0 32 29 55 51 60 119 30 33 -15 49 -17 71 -9 36 12 36 21 2 38 -16 8 -36 21
-46 29 -16 14 -16 15 10 33 16 10 32 16 38 15 5 -2 17 -26 25 -53z m-326 -86
c-5 -7 -9 -15 -9 -18 -1 -9 -24 -45 -25 -37 0 16 30 80 36 74 3 -3 2 -12 -2
-19z m-147 -275 c27 -60 27 -61 -7 -13 -67 97 -79 155 -42 210 16 25 17 23 24
-67 4 -51 15 -109 25 -130z m1548 136 c5 -28 -1 -45 -36 -104 -49 -83 -70
-107 -40 -47 15 30 23 70 28 137 6 92 6 94 24 71 9 -12 20 -38 24 -57z m-1445
32 c0 -5 -7 -14 -15 -21 -13 -10 -15 -9 -15 9 0 12 6 21 15 21 8 0 15 -4 15
-9z m1310 -21 c0 -23 -10 -26 -28 -8 -18 18 -15 28 8 28 13 0 20 -7 20 -20z
m-1026 -10 c10 -10 -182 -1 -201 9 -6 3 34 4 90 3 56 -2 106 -7 111 -12z m523
-12 c-3 -8 -6 -5 -6 6 -1 11 2 17 5 13 3 -3 4 -12 1 -19z m-403 -3 c3 -8 1
-15 -4 -15 -6 0 -10 7 -10 15 0 8 2 15 4 15 2 0 6 -7 10 -15z m751 9 c-71 -8
-165 -8 -165 -1 0 4 44 6 98 5 53 0 84 -3 67 -4z m-748 -54 c1 -11 -2 -20 -8
-20 -5 0 -9 9 -9 20 0 11 4 20 8 20 4 0 8 -9 9 -20z m400 -22 c-3 -7 -5 -2 -5
12 0 14 2 19 5 13 2 -7 2 -19 0 -25z m-341 -5 c-10 -10 -19 5 -10 18 6 11 8
11 12 0 2 -7 1 -15 -2 -18z m-56 -7 c0 -3 -4 -8 -10 -11 -5 -3 -10 -1 -10 4 0
6 5 11 10 11 6 0 10 -2 10 -4z m397 -43 c-3 -10 -5 -4 -5 12 0 17 2 24 5 18 2
-7 2 -21 0 -30z m-170 -9 c-3 -3 -12 -4 -19 -1 -8 3 -5 6 6 6 11 1 17 -2 13
-5z m76 -1 c-7 -2 -19 -2 -25 0 -7 3 -2 5 12 5 14 0 19 -2 13 -5z m94 -39 c-3
-3 -12 -4 -19 -1 -8 3 -5 6 6 6 11 1 17 -2 13 -5z m76 -1 c-7 -2 -21 -2 -30 0
-10 3 -4 5 12 5 17 0 24 -2 18 -5z m54 1 c-3 -3 -12 -4 -19 -1 -8 3 -5 6 6 6
11 1 17 -2 13 -5z m-414 -91 c-24 -2 -62 -2 -85 0 -24 2 -5 4 42 4 47 0 66 -2
43 -4z m214 1 c-3 -3 -12 -4 -19 -1 -8 3 -5 6 6 6 11 1 17 -2 13 -5z"/>
<path d="M2608 7003 c7 -3 16 -2 19 1 4 3 -2 6 -13 5 -11 0 -14 -3 -6 -6z"/>
<path d="M2804 6416 c-10 -25 0 -61 17 -64 13 -2 18 6 21 37 3 34 1 41 -15 41
-9 0 -20 -6 -23 -14z"/>
<path d="M2270 6319 c-38 -5 -19 -6 60 -3 63 2 156 -1 207 -6 51 -5 102 -6
114 -1 49 18 -263 26 -381 10z"/>
<path d="M2106 6275 c-10 -8 -22 -12 -26 -10 -4 3 -16 -5 -26 -18 -19 -21 -19
-21 0 -7 10 8 24 15 30 15 16 0 52 23 46 28 -3 3 -14 -1 -24 -8z"/>
<path d="M2855 6270 c3 -5 11 -10 16 -10 6 0 7 5 4 10 -3 6 -11 10 -16 10 -6
0 -7 -4 -4 -10z"/>
<path d="M2108 6233 c7 -3 16 -2 19 1 4 3 -2 6 -13 5 -11 0 -14 -3 -6 -6z"/>
<path d="M3276 6141 c-9 -15 23 -36 36 -23 5 5 7 15 4 21 -9 13 -33 14 -40 2z"/>
<path d="M3318 6063 c7 -3 16 -2 19 1 4 3 -2 6 -13 5 -11 0 -14 -3 -6 -6z"/>
<path d="M3370 6060 c0 -5 5 -10 10 -10 6 0 10 5 10 10 0 6 -4 10 -10 10 -5 0
-10 -4 -10 -10z"/>
<path d="M3427 6039 c-9 -6 -17 -14 -17 -19 0 -16 30 -11 37 5 8 21 1 25 -20
14z"/>
<path d="M1376 6009 c-14 -11 -26 -27 -26 -35 0 -9 -7 -22 -15 -30 -8 -9 -15
-21 -15 -27 0 -6 24 12 53 41 29 29 61 52 70 52 10 0 15 5 12 10 -10 17 -51
11 -79 -11z"/>
<path d="M1490 6020 c-13 -8 -12 -10 3 -10 9 0 17 5 17 10 0 12 -1 12 -20 0z"/>
<path d="M1745 5820 c3 -5 8 -10 11 -10 2 0 4 5 4 10 0 6 -5 10 -11 10 -5 0
-7 -4 -4 -10z"/>
<path d="M3371 5793 c0 -12 -5 -25 -11 -28 -5 -3 -10 -15 -10 -26 0 -11 -4
-18 -9 -15 -4 3 -6 18 -3 33 2 16 2 25 -2 22 -3 -3 -10 -33 -14 -68 -7 -52 -6
-63 7 -71 14 -9 14 -11 1 -20 -8 -5 -10 -10 -4 -10 6 0 16 6 21 13 15 18 35
128 30 162 -3 21 -4 23 -6 8z"/>
<path d="M3620 5800 c0 -5 8 -14 18 -19 9 -6 11 -11 5 -11 -7 0 -13 -12 -13
-28 0 -15 -4 -42 -10 -60 l-9 -34 67 -30 c37 -17 105 -48 150 -70 46 -22 86
-37 89 -34 3 3 18 -1 33 -9 23 -12 30 -12 48 1 12 8 27 33 34 56 11 38 11 42
-13 59 -13 11 -30 24 -37 30 -7 6 -25 14 -40 19 -15 4 -93 38 -174 74 -82 36
-148 61 -148 56z m135 -70 c3 -5 -1 -10 -10 -10 -9 0 -13 5 -10 10 3 6 8 10
10 10 2 0 7 -4 10 -10z m66 -29 c14 -10 36 -21 49 -24 l25 -4 -26 -2 c-15 0
-32 6 -39 14 -7 8 -18 15 -26 15 -7 0 -16 5 -19 10 -10 16 11 11 36 -9z m175
-85 c10 -8 17 -16 14 -19 -9 -7 -70 13 -70 23 0 15 33 12 56 -4z"/>
<path d="M1078 5728 c-97 -44 -155 -75 -151 -82 4 -6 0 -5 -9 2 -13 10 -18 9
-29 -4 -7 -9 -24 -20 -36 -25 -43 -16 -43 -65 0 -111 34 -36 49 -32 307 86 76
35 94 47 92 62 -2 11 -4 47 -5 81 -1 35 -4 63 -7 63 -3 0 -76 -33 -162 -72z
m152 42 c0 -5 -7 -10 -15 -10 -9 0 -29 -7 -45 -15 -17 -9 -30 -12 -30 -7 0 6
54 31 88 41 1 1 2 -3 2 -9z m-155 -80 c-16 -11 -40 -20 -52 -20 -13 0 -23 -4
-23 -10 0 -5 -12 -10 -27 -9 -16 0 -21 3 -13 6 8 2 29 11 46 19 86 38 114 44
69 14z m-155 -80 c0 -5 -1 -10 -3 -10 -1 0 -17 -4 -35 -9 -37 -11 -45 4 -9 19
30 12 47 12 47 0z"/>
<path d="M1667 5793 c-4 -3 -19 -7 -34 -8 -16 -1 -34 -3 -40 -3 -15 -2 -17
-40 -4 -61 7 -11 11 -9 20 8 7 12 16 19 21 16 6 -3 21 5 35 19 14 14 21 27 16
30 -4 3 -11 3 -14 -1z"/>
<path d="M3190 5783 c0 -17 17 -33 39 -36 13 -2 29 -11 36 -20 15 -21 25 -12
25 25 0 22 -5 28 -22 29 -13 0 -35 3 -50 5 -16 3 -28 1 -28 -3z"/>
<path d="M1562 5750 c0 -19 2 -27 5 -17 2 9 2 25 0 35 -3 9 -5 1 -5 -18z"/>
<path d="M3125 5761 c-7 -13 14 -25 48 -27 l27 -2 -21 19 c-24 21 -45 24 -54
10z m35 -11 c0 -5 -2 -10 -4 -10 -3 0 -8 5 -11 10 -3 6 -1 10 4 10 6 0 11 -4
11 -10z"/>
<path d="M3286 5651 c-3 -5 1 -14 8 -20 10 -8 16 -9 21 -1 3 5 -1 10 -10 10
-9 0 -13 5 -10 10 3 6 4 10 1 10 -3 0 -7 -4 -10 -9z"/>
<path d="M3260 5636 c0 -2 8 -10 18 -17 15 -13 16 -12 3 4 -13 16 -21 21 -21
13z"/>
<path d="M760 5540 c0 -6 7 -13 15 -17 24 -9 27 1 5 15 -13 8 -20 8 -20 2z"/>
<path d="M1376 5309 c-12 -117 -31 -174 -74 -217 -44 -44 -71 -120 -71 -201 0
-60 -1 -63 -21 -51 -10 6 -11 12 -3 22 5 7 9 27 8 43 -1 17 -3 58 -4 92 l-1
62 -29 -17 c-16 -9 -33 -14 -36 -10 -10 9 16 45 42 59 19 10 22 18 18 48 -2
20 -7 58 -11 85 -6 48 -6 48 -24 30 -24 -24 -72 -184 -74 -245 0 -26 -4 -45
-8 -42 -5 2 -8 -7 -8 -20 0 -14 -2 -40 -5 -58 -4 -26 -3 -30 4 -14 9 18 10 17
10 -7 1 -17 -4 -28 -13 -28 -19 0 -24 -55 -32 -324 -7 -223 -7 -228 12 -219
10 6 24 8 31 6 6 -2 14 9 18 26 8 39 42 81 65 81 10 0 25 -11 34 -25 15 -23
15 -26 -3 -44 -17 -17 -51 -134 -51 -177 0 -13 -6 -15 -27 -9 -24 6 -25 5 -12
-11 13 -16 11 -17 -20 -12 l-34 5 36 -33 c42 -39 54 -59 71 -122 17 -61 20
-311 6 -410 -19 -129 -36 -177 -76 -210 -34 -28 -36 -32 -32 -83 3 -33 9 -54
16 -53 32 3 40 7 75 38 21 19 44 52 52 73 7 21 14 32 14 25 2 -31 -31 -82 -77
-122 -48 -42 -50 -45 -37 -69 7 -15 18 -51 24 -81 16 -79 28 -114 62 -182 5
-10 9 -23 9 -29 0 -15 42 -102 54 -110 20 -15 -4 -39 -39 -39 -34 0 -36 2 -82
93 -26 50 -62 124 -79 163 -18 39 -46 93 -62 120 -17 27 -32 55 -34 63 -2 8
-45 36 -96 62 -52 26 -110 60 -130 76 -55 41 -142 125 -142 136 0 5 9 -1 19
-15 46 -58 261 -199 339 -223 30 -9 51 18 52 66 0 34 -2 36 -48 47 -138 31
-347 207 -427 359 -26 49 -30 67 -30 135 0 66 -2 76 -13 61 -7 -10 -20 -43
-29 -73 -13 -45 -14 -65 -5 -108 10 -48 69 -162 97 -187 6 -5 15 -17 20 -25 6
-10 3 -9 -7 2 -28 31 -32 20 -4 -16 14 -19 30 -45 35 -58 5 -13 38 -57 72 -98
35 -41 64 -80 65 -86 1 -7 23 -41 48 -76 25 -35 75 -103 111 -153 36 -49 65
-94 65 -99 0 -5 33 -43 74 -85 41 -42 97 -102 125 -134 l51 -58 -20 -21 c-11
-12 -20 -29 -20 -37 1 -9 34 -43 75 -75 41 -32 86 -72 101 -88 32 -33 71 -40
55 -10 -5 10 -31 43 -57 73 l-47 54 58 -56 c57 -56 57 -57 62 -125 6 -76 9
-86 23 -64 8 12 10 9 10 -11 0 -29 22 -53 63 -68 27 -10 27 -12 27 -100 0 -93
-4 -101 -51 -101 -13 0 -19 7 -19 23 0 12 -8 31 -17 42 -12 15 -14 16 -10 3 3
-9 -1 -22 -9 -28 -8 -8 -14 -30 -14 -56 0 -40 2 -44 25 -44 15 0 25 -6 25 -15
0 -28 46 -48 95 -41 55 9 63 29 46 113 -17 88 -14 137 16 200 14 32 26 66 25
76 0 9 3 17 8 17 5 0 6 -40 3 -88 -7 -104 4 -245 19 -236 5 3 8 -2 6 -12 -2
-11 2 -18 10 -17 6 2 12 -3 12 -11 0 -9 -7 -13 -20 -11 -24 5 -27 -20 -6 -47
10 -13 27 -18 65 -18 39 0 51 -4 51 -15 0 -8 -7 -15 -15 -15 -8 0 -15 4 -15 9
0 9 -45 5 -62 -5 -4 -3 -8 1 -9 8 0 7 -4 3 -9 -10 -15 -35 -2 -51 43 -55 l42
-4 -42 -1 c-41 -2 -43 -4 -43 -32 0 -30 1 -30 42 -28 23 2 43 -2 45 -8 2 -7
-8 -9 -27 -6 -19 3 -30 0 -30 -8 0 -10 -4 -9 -16 1 -14 11 -15 4 -10 -72 2
-46 5 -86 5 -89 1 -3 28 -5 60 -5 70 0 71 0 71 118 0 44 4 77 10 77 6 0 10
-74 10 -202 0 -278 19 -788 30 -807 6 -11 8 -5 6 19 -2 19 -1 25 1 12 2 -12 8
-20 12 -18 7 5 10 -9 14 -63 1 -16 5 -29 8 -28 8 2 59 -55 59 -65 0 -5 0 -11
-1 -14 -2 -14 61 -69 131 -113 41 -27 84 -59 95 -71 43 -48 149 -83 245 -83
80 1 212 43 249 79 15 13 58 45 96 70 69 46 179 144 170 152 -2 3 -11 -1 -20
-8 -12 -10 -15 -10 -15 4 0 9 5 16 10 16 6 0 10 12 10 26 0 16 4 23 12 18 7
-4 8 -3 4 4 -7 12 12 101 27 119 5 7 6 24 3 38 -4 14 -2 25 4 25 5 0 10 8 10
18 0 9 7 35 14 57 11 31 16 161 22 593 6 454 9 552 20 552 8 0 14 -7 14 -15 0
-8 7 -15 15 -15 11 0 15 -12 15 -44 0 -25 4 -56 9 -69 9 -23 14 -24 58 -20 55
6 103 28 103 46 0 7 5 18 12 25 8 8 12 69 13 194 2 168 4 186 24 218 25 41 27
54 6 47 -8 -4 -17 -2 -20 3 -5 9 72 90 86 90 17 0 68 59 86 101 23 50 71 102
89 95 6 -2 17 1 23 7 8 8 11 7 11 -5 0 -8 -13 -21 -28 -27 -26 -11 -80 -86
-70 -97 3 -2 22 3 43 12 44 18 262 238 320 322 20 29 61 85 91 125 31 39 62
84 70 99 8 16 44 64 79 108 36 44 65 87 65 94 0 7 7 19 16 26 8 8 20 23 25 34
6 12 -5 4 -23 -16 -37 -41 -72 -68 -169 -128 -105 -65 -93 -46 18 28 93 61
223 173 223 191 0 4 10 18 23 31 50 55 109 181 112 244 3 51 -27 160 -48 173
-7 4 -8 -1 -3 -13 40 -96 -5 -221 -131 -366 -88 -102 -248 -218 -300 -218 -21
0 -23 -4 -23 -50 0 -43 3 -52 23 -60 20 -8 21 -9 2 -10 -11 -1 -14 -4 -7 -7
17 -7 15 -16 -9 -42 -12 -12 -74 -107 -138 -209 -93 -147 -125 -191 -154 -207
-31 -17 -39 -18 -60 -6 -24 13 -25 15 -12 50 33 90 47 115 56 100 9 -14 11 -7
13 46 1 23 73 173 93 193 7 7 13 21 13 30 0 9 9 28 19 41 10 14 17 31 14 38
-4 10 3 11 26 7 19 -4 31 -2 31 4 0 6 -4 12 -9 14 -6 2 -5 19 1 44 11 41 11
42 -25 73 -31 27 -39 45 -59 124 -21 83 -23 114 -23 307 1 184 3 220 18 248
10 17 21 32 25 32 5 0 19 14 31 31 23 30 23 31 2 24 -11 -3 -26 -3 -32 1 -18
11 11 24 54 24 20 0 37 3 37 8 0 4 -18 6 -39 4 -44 -4 -42 -7 -61 93 -6 33
-19 71 -29 85 -21 29 -14 63 15 74 24 9 61 -28 71 -72 5 -23 15 -38 27 -40 17
-4 17 10 13 255 -4 195 -9 286 -25 373 -35 205 -84 352 -112 335 -6 -3 -10
-35 -10 -71 0 -63 -1 -65 -30 -75 -16 -6 -28 -15 -25 -19 3 -5 -1 -11 -7 -13
-9 -4 -10 -8 -2 -14 6 -4 14 -17 18 -28 l8 -20 8 20 c6 14 8 6 7 -27 -1 -27
-4 -48 -7 -48 -3 0 -14 21 -24 46 -10 26 -33 60 -50 78 -36 36 -50 77 -67 198
-12 84 -12 86 -29 65 -48 -64 -59 -94 -48 -136 6 -23 16 -41 22 -41 6 0 5 -4
-3 -9 -11 -7 -8 -13 13 -26 23 -16 26 -22 22 -64 -2 -25 -5 -54 -5 -63 -1 -10
-8 -18 -17 -18 -10 0 -14 -6 -10 -15 3 -8 0 -15 -7 -15 -7 0 -28 -8 -47 -18
-19 -11 -41 -18 -48 -16 -7 1 -8 0 -2 -3 17 -8 11 -26 -6 -19 -20 8 -104 -79
-104 -107 0 -12 -16 -25 -46 -39 l-47 -20 5 -280 c5 -246 3 -281 -11 -295 -14
-15 -83 -16 -710 -10 -560 4 -696 8 -702 19 -5 7 -9 138 -9 290 l0 277 -30 16
c-17 9 -30 24 -30 34 0 11 -28 48 -62 83 -53 54 -68 64 -97 63 -22 0 -38 7
-47 20 -8 11 -14 14 -14 7 0 -7 -5 -10 -10 -7 -6 4 -8 11 -5 16 4 5 -1 16 -9
25 -10 9 -16 33 -16 61 0 36 6 52 30 80 17 18 30 42 30 53 0 10 4 21 10 25 12
8 3 32 -32 79 -15 22 -28 46 -28 52 0 7 -4 15 -9 18 -5 3 -12 -26 -15 -65z
m2328 -235 c30 -31 33 -44 9 -44 -23 0 -53 29 -53 52 0 25 13 23 44 -8z m-58
-136 c1 -10 5 -36 9 -58 4 -26 3 -40 -4 -40 -6 0 -11 19 -11 45 0 33 -4 45
-15 45 -8 0 -15 7 -15 16 0 21 32 14 36 -8z m-2389 -20 c-3 -7 -5 -2 -5 12 0
14 2 19 5 13 2 -7 2 -19 0 -25z m63 -357 c0 -4 12 -20 26 -34 16 -16 23 -31
18 -39 -4 -7 -4 -10 1 -6 11 11 36 -12 28 -25 -3 -5 -1 -7 4 -4 12 8 36 -17
26 -26 -3 -4 -1 -7 6 -7 6 0 21 -9 33 -20 l21 -19 77 69 c42 39 82 70 87 70 6
0 13 -9 16 -20 5 -21 -24 -51 -234 -236 -66 -59 -126 -103 -141 -106 -16 -3
-28 -3 -28 1 0 3 33 38 73 79 l72 73 -45 -6 c-25 -3 -69 -10 -98 -16 -30 -6
-57 -7 -60 -4 -4 4 -2 10 5 12 7 2 9 11 6 19 -3 8 -1 14 5 14 6 0 12 -5 14
-10 2 -6 26 1 56 16 29 14 51 29 48 32 -3 2 -17 -3 -30 -12 -32 -21 -34 -20
-31 7 4 36 4 37 20 37 17 0 21 35 5 45 -23 14 -8 26 28 20 20 -3 30 -2 22 1
-22 9 -60 46 -60 57 0 6 10 1 23 -11 28 -26 46 -29 26 -4 -25 31 -40 62 -29
62 5 0 10 -4 10 -9z m1996 -106 c54 -49 76 -63 92 -58 12 3 19 9 16 14 -3 5
12 -2 32 -16 21 -14 45 -23 53 -20 9 3 12 3 8 -1 -9 -10 71 -51 127 -65 25 -6
46 -15 46 -20 0 -13 -24 -11 -112 12 -44 11 -87 19 -95 17 -9 -2 13 -30 61
-77 42 -40 76 -75 76 -77 0 -2 -12 -4 -27 -4 -19 0 -44 16 -78 47 -27 26 -105
96 -172 156 -68 60 -123 113 -123 117 0 5 6 11 13 13 9 4 8 8 -3 16 -13 10
-13 11 0 11 8 0 47 -29 86 -65z m201 -61 c-3 -3 -12 -4 -19 -1 -8 3 -5 6 6 6
11 1 17 -2 13 -5z m-2257 -49 c0 -8 -4 -15 -10 -15 -5 0 -10 7 -10 15 0 8 5
15 10 15 6 0 10 -7 10 -15z m1980 -194 c0 -4 -9 -14 -19 -23 -11 -9 -23 -33
-27 -52 -9 -48 -24 -46 -24 4 0 22 5 40 11 40 5 0 7 5 4 10 -3 6 -4 14 -1 19
6 10 56 12 56 2z m120 -1 c18 -12 2 -12 -25 0 -13 6 -15 9 -5 9 8 0 22 -4 30
-9z m-2150 -44 c0 -3 -4 -8 -10 -11 -5 -3 -10 -1 -10 4 0 6 5 11 10 11 6 0 10
-2 10 -4z m16 -123 c17 -86 17 -94 2 -90 -18 3 -49 150 -35 159 16 10 19 5 33
-69z m2079 58 c0 -23 -22 -24 -28 -1 -4 16 -1 20 11 18 9 -2 17 -10 17 -17z
m354 -49 c0 -20 -4 -46 -9 -57 l-9 -20 -1 20 c-1 11 -7 -6 -14 -37 -12 -54
-21 -77 -30 -67 -2 2 1 40 6 84 5 52 13 82 23 88 8 4 15 15 15 23 0 8 5 12 10
9 6 -3 10 -23 9 -43z m-1994 4 c6 -3 -41 -5 -102 -5 -100 -1 -125 4 -108 20 5
5 194 -9 210 -15z m1648 -55 c-2 -20 -6 -42 -9 -48 -4 -16 -24 -17 -24 -1 0 6
-7 20 -17 30 -9 11 -11 18 -5 18 7 0 11 3 11 8 -5 29 3 39 25 35 22 -5 24 -9
19 -42z m115 26 c6 -5 12 -25 12 -44 0 -33 -1 -34 -32 -28 -18 3 -42 7 -54 8
-19 1 -20 4 -11 40 9 35 12 38 41 36 17 -2 37 -7 44 -12z m-1810 -72 c-3 -14
-1 -25 4 -25 10 0 2 -69 -8 -80 -18 -17 -32 77 -18 114 10 26 27 18 22 -9z
m1952 -19 c0 -9 -8 -12 -25 -8 -24 4 -33 21 -19 35 10 9 44 -12 44 -27z
m-2210 5 c0 -12 -9 -20 -25 -23 -26 -5 -29 -1 -19 26 9 23 44 20 44 -3z m1964
-90 c-7 -75 -24 -81 -19 -8 3 45 15 90 21 84 3 -2 1 -37 -2 -76z m-891 42 c-7
-2 -21 -2 -30 0 -10 3 -4 5 12 5 17 0 24 -2 18 -5z m1034 -85 c-3 -8 -6 -5 -6
6 -1 11 2 17 5 13 3 -3 4 -12 1 -19z m-1932 -207 c-5 -13 -7 -14 -15 -1 -14
22 -12 167 3 190 10 17 12 6 15 -77 1 -53 0 -104 -3 -112z m1942 157 c-3 -8
-6 -5 -6 6 -1 11 2 17 5 13 3 -3 4 -12 1 -19z m-217 -103 c0 -8 -4 -15 -10
-15 -5 0 -10 7 -10 15 0 8 5 15 10 15 6 0 10 -7 10 -15z m58 -29 c16 -43 15
-57 -3 -50 -8 4 -15 14 -15 24 0 10 -7 25 -15 34 -19 19 -19 21 3 23 12 1 22
-9 30 -31z m289 -13 c-3 -10 -5 -4 -5 12 0 17 2 24 5 18 2 -7 2 -21 0 -30z
m-2330 5 c-3 -8 -6 -5 -6 6 -1 11 2 17 5 13 3 -3 4 -12 1 -19z m-27 -18 c0 -5
-5 -10 -11 -10 -5 0 -7 5 -4 10 3 6 8 10 11 10 2 0 4 -4 4 -10z m2002 -65 c5
-39 -7 -34 -17 8 -4 16 -3 27 3 27 5 0 12 -16 14 -35z m-1902 -10 c0 -8 -4
-15 -10 -15 -5 0 -10 7 -10 15 0 8 5 15 10 15 6 0 10 -7 10 -15z m1987 -32
c-3 -10 -5 -4 -5 12 0 17 2 24 5 18 2 -7 2 -21 0 -30z m-667 -83 c6 -11 8 -20
6 -20 -3 0 -10 9 -16 20 -6 11 -8 20 -6 20 3 0 10 -9 16 -20z m-1506 -16 c3
-8 2 -12 -4 -9 -6 3 -10 10 -10 16 0 14 7 11 14 -7z m2524 -59 c-3 -3 -9 2
-12 12 -6 14 -5 15 5 6 7 -7 10 -15 7 -18z m-378 5 c0 -5 -4 -10 -10 -10 -5 0
-10 5 -10 10 0 6 5 10 10 10 6 0 10 -4 10 -10z m-13 -52 c-3 -8 -6 -5 -6 6 -1
11 2 17 5 13 3 -3 4 -12 1 -19z m-1650 -45 c-3 -10 -5 -4 -5 12 0 17 2 24 5
18 2 -7 2 -21 0 -30z m1682 -207 c11 -13 11 -22 -3 -51 -9 -19 -19 -35 -21
-35 -2 0 -3 27 -1 60 2 33 0 62 -5 66 -11 6 -12 98 -2 145 6 26 9 10 14 -68 3
-61 10 -108 18 -117z m-1501 150 c2 -3 6 -64 8 -135 l4 -130 -32 10 c-18 5
-64 9 -103 9 l-70 0 14 125 c13 112 17 124 35 128 27 5 137 -1 144 -7z m1249
-118 c21 -12 48 -32 60 -45 31 -32 3 -30 -32 3 -15 14 -34 23 -41 20 -8 -3
-14 1 -14 9 0 8 -4 15 -10 15 -5 0 -10 5 -10 10 0 14 4 13 47 -12z m123 -123
c0 -54 -27 -65 -37 -15 -3 17 -10 33 -14 36 -16 9 1 24 27 24 22 0 24 -4 24
-45z m-235 7 c24 -17 35 -57 35 -127 0 -48 -4 -74 -10 -70 -6 4 -10 -5 -10
-19 0 -16 -6 -26 -15 -26 -9 0 -12 6 -9 15 4 8 0 23 -7 32 -10 12 -10 15 -1 9
18 -11 16 49 -3 64 -13 10 -18 11 -28 1 -9 -10 -8 -11 7 -5 14 5 17 3 14 -7
-3 -8 -11 -14 -18 -14 -15 0 -22 65 -13 123 4 25 10 32 27 32 11 0 26 -4 31
-8z m-23 -164 c-7 -7 -12 -8 -12 -2 0 6 3 14 7 17 3 4 9 5 12 2 2 -3 -1 -11
-7 -17z m-1657 -29 c12 -18 -3 -22 -20 -5 -14 14 -14 16 -1 16 8 0 18 -5 21
-11z m-15 -53 c15 -38 39 -54 52 -34 6 10 11 9 19 -5 5 -9 21 -29 34 -43 29
-32 41 -79 25 -99 -9 -11 -9 -15 -1 -15 6 0 11 -4 11 -10 0 -20 -16 -9 -40 29
-14 21 -53 80 -87 130 -35 51 -63 95 -63 97 0 3 8 0 18 -5 10 -5 24 -25 32
-45z m2230 20 c-19 -19 -37 -30 -39 -24 -5 13 39 58 58 58 10 0 3 -12 -19 -34z
m-350 -7 c0 -14 -7 -19 -25 -19 -18 0 -25 5 -25 18 0 25 7 31 31 25 10 -3 19
-14 19 -24z m-1397 4 c-7 -2 -19 -2 -25 0 -7 3 -2 5 12 5 14 0 19 -2 13 -5z
m-445 -28 c-3 -3 -9 2 -12 12 -6 14 -5 15 5 6 7 -7 10 -15 7 -18z m149 -7 c-3
-8 -6 -5 -6 6 -1 11 2 17 5 13 3 -3 4 -12 1 -19z m228 -18 c3 -5 1 -10 -4 -10
-6 0 -11 5 -11 10 0 6 2 10 4 10 3 0 8 -4 11 -10z m75 6 c0 -2 -9 -6 -20 -9
-11 -3 -20 -1 -20 4 0 5 9 9 20 9 11 0 20 -2 20 -4z m-494 -68 l29 -33 -32 29
c-31 28 -38 36 -30 36 2 0 16 -15 33 -32z m407 -18 c-3 -12 -8 -19 -11 -16 -5
6 5 36 12 36 2 0 2 -9 -1 -20z m75 13 c-10 -2 -26 -2 -35 0 -10 3 -2 5 17 5
19 0 27 -2 18 -5z m-276 -110 c2 -33 0 -59 -4 -56 -5 2 -7 41 -7 86 2 86 6 74
11 -30z m271 30 c-7 -2 -19 -2 -25 0 -7 3 -2 5 12 5 14 0 19 -2 13 -5z m27
-82 c0 -14 -6 -17 -25 -13 -14 2 -25 9 -25 14 0 5 9 6 20 3 11 -4 20 -2 20 4
0 6 2 11 5 11 3 0 5 -8 5 -19z m1477 -58 c-2 -16 -4 -3 -4 27 0 30 2 43 4 28
2 -16 2 -40 0 -55z m-1557 55 c0 7 5 10 10 7 13 -8 3 -25 -16 -25 -8 0 -14 8
-14 18 0 14 2 15 10 2 7 -11 10 -11 10 -2z m50 -38 c0 -5 -4 -10 -10 -10 -5 0
-10 5 -10 10 0 6 5 10 10 10 6 0 10 -4 10 -10z m-260 -36 c0 -8 -4 -12 -10 -9
-5 3 -10 10 -10 16 0 5 5 9 10 9 6 0 10 -7 10 -16z m197 -26 c-3 -8 -6 -5 -6
6 -1 11 2 17 5 13 3 -3 4 -12 1 -19z m73 12 c0 -5 -11 -10 -24 -10 -17 0 -26
-7 -30 -26 -9 -36 -18 -25 -10 12 5 24 11 30 35 32 16 1 29 -2 29 -8z m17 -27
c-3 -10 -5 -4 -5 12 0 17 2 24 5 18 2 -7 2 -21 0 -30z m-22 -13 c3 -5 -1 -10
-9 -10 -9 0 -16 5 -16 10 0 6 4 10 9 10 6 0 13 -4 16 -10z m25 -56 c0 -5 -15
-9 -32 -8 -18 1 -36 -3 -40 -9 -6 -9 -8 -8 -8 1 0 7 -4 10 -10 7 -5 -3 -10 0
-10 7 0 9 15 13 50 13 28 0 50 -5 50 -11z m1485 -16 c-4 -13 -10 -42 -12 -66
-3 -24 -11 -46 -19 -49 -8 -3 -14 -18 -14 -33 0 -32 -14 -47 -26 -28 -4 7 -9
51 -10 99 l-3 88 32 4 c18 2 38 5 46 5 10 2 11 -4 6 -20z m-1512 -25 c-7 -2
-19 -2 -25 0 -7 3 -2 5 12 5 14 0 19 -2 13 -5z m97 -38 c0 -8 -9 -15 -20 -15
-20 0 -26 11 -13 23 12 13 33 7 33 -8z m-163 -27 c-3 -8 -6 -5 -6 6 -1 11 2
17 5 13 3 -3 4 -12 1 -19z m20 0 c-3 -8 -6 -5 -6 6 -1 11 2 17 5 13 3 -3 4
-12 1 -19z m93 8 c0 -8 -8 -13 -17 -11 -10 2 -28 4 -40 4 -41 2 -24 21 17 21
28 0 40 -4 40 -14z m-93 -93 c-2 -16 -4 -5 -4 22 0 28 2 40 4 28 2 -13 2 -35
0 -50z m46 50 c-7 -2 -19 -2 -25 0 -7 3 -2 5 12 5 14 0 19 -2 13 -5z m-66 -50
c-3 -10 -5 -4 -5 12 0 17 2 24 5 18 2 -7 2 -21 0 -30z m113 1 c0 -7 -8 -11
-17 -9 -10 2 -29 4 -43 5 -23 2 -23 3 5 9 44 10 55 9 55 -5z m-45 -44 c-3 -5
-10 -10 -16 -10 -5 0 -9 5 -9 10 0 6 7 10 16 10 8 0 12 -4 9 -10z m38 -39 c4
-1 7 -5 7 -10 0 -5 -8 -8 -17 -6 -10 2 -28 4 -41 4 -13 1 -21 5 -18 9 4 6 26
7 69 3z m-33 -45 c0 -11 -19 -15 -25 -6 -3 5 1 10 9 10 9 0 16 -2 16 -4z m-5
-86 c-3 -5 -10 -10 -16 -10 -5 0 -9 5 -9 10 0 6 7 10 16 10 8 0 12 -4 9 -10z
m48 -46 c-4 -12 -8 -13 -14 -3 -9 15 -2 32 11 24 5 -3 6 -13 3 -21z m-48 -24
c3 -5 -1 -10 -9 -10 -9 0 -16 5 -16 10 0 6 4 10 9 10 6 0 13 -4 16 -10z m52
-42 c-3 -8 -6 -5 -6 6 -1 11 2 17 5 13 3 -3 4 -12 1 -19z m-50 -24 c-3 -3 -12
-4 -19 -1 -8 3 -5 6 6 6 11 1 17 -2 13 -5z m11 -20 c13 -3 22 -11 21 -22 0
-10 -3 -12 -6 -4 -2 6 -17 12 -33 12 -16 0 -31 -6 -33 -12 -3 -7 -6 -4 -6 8
-1 22 15 27 57 18z m-4 -39 c4 -10 -1 -15 -14 -15 -20 0 -26 11 -13 23 10 11
20 8 27 -8z m-47 -57 c-3 -8 -6 -5 -6 6 -1 11 2 17 5 13 3 -3 4 -12 1 -19z
m70 2 c4 -11 2 -12 -5 -2 -5 7 -16 10 -24 7 -9 -4 -19 -1 -23 5 -5 8 2 10 21
8 15 -2 29 -10 31 -18z"/>
<path d="M1285 4370 c-3 -6 1 -7 9 -4 18 7 21 14 7 14 -6 0 -13 -4 -16 -10z"/>
<path d="M1315 2580 c3 -5 11 -10 16 -10 6 0 7 5 4 10 -3 6 -11 10 -16 10 -6
0 -7 -4 -4 -10z"/>
<path d="M1450 5290 c0 -5 5 -10 10 -10 6 0 10 5 10 10 0 6 -4 10 -10 10 -5 0
-10 -4 -10 -10z"/>
<path d="M3394 5195 c9 -81 30 -101 24 -22 -3 32 -11 63 -18 70 -10 10 -11 1
-6 -48z"/>
<path d="M1472 5185 c0 -16 2 -22 5 -12 2 9 2 23 0 30 -3 6 -5 -1 -5 -18z"/>
<path d="M3140 4815 c0 -27 6 -30 29 -16 17 11 7 41 -14 41 -9 0 -15 -9 -15
-25z"/>
<path d="M1690 4821 c0 -6 5 -13 10 -16 6 -3 10 1 10 9 0 9 -4 16 -10 16 -5 0
-10 -4 -10 -9z"/>
<path d="M2055 4770 c3 -5 1 -10 -6 -10 -7 0 -10 -3 -6 -6 3 -3 15 -3 26 1 23
7 19 25 -5 25 -8 0 -12 -4 -9 -10z"/>
<path d="M2788 4773 c-15 -4 -26 -23 -14 -23 2 0 11 -3 20 -6 11 -4 14 0 13
15 -1 12 -1 20 -2 20 0 -1 -8 -3 -17 -6z"/>
<path d="M2038 4733 c6 -2 18 -2 25 0 6 3 1 5 -13 5 -14 0 -19 -2 -12 -5z"/>
<path d="M1887 4545 c-39 -29 3 -75 70 -75 17 0 35 -5 38 -10 10 -16 -25 -25
-46 -12 -26 16 -82 16 -77 0 11 -33 106 -50 162 -28 18 7 26 17 26 34 0 29
-18 41 -78 51 -26 4 -41 11 -39 18 3 7 11 10 18 8 8 -2 34 -5 59 -8 l45 -4
-24 20 c-28 25 -125 29 -154 6z"/>
<path d="M2080 4496 c0 -78 9 -86 98 -86 78 0 94 17 90 91 -3 50 -5 54 -30 57
-26 3 -27 2 -30 -55 -3 -57 -3 -58 -33 -58 -29 0 -30 2 -35 55 -5 51 -7 55
-32 58 l-28 3 0 -65z"/>
<path d="M2290 4540 c0 -17 6 -20 40 -20 22 0 40 -3 40 -7 0 -5 -18 -21 -40
-36 -23 -16 -40 -36 -40 -48 0 -17 8 -19 95 -19 78 0 95 3 95 15 0 11 -12 15
-50 15 -27 0 -50 3 -49 8 0 4 19 21 42 37 23 17 43 40 45 52 3 19 -2 21 -87
22 -85 2 -91 1 -91 -19z"/>
<path d="M2513 4552 c-21 -3 -23 -9 -23 -56 0 -38 5 -57 18 -69 27 -25 92 -31
135 -13 l37 15 0 64 c0 63 0 64 -25 59 -22 -4 -25 -10 -25 -46 0 -54 -11 -68
-46 -64 -27 3 -29 6 -32 53 -4 56 -8 63 -39 57z"/>
<path d="M2700 4479 l0 -70 33 3 c24 2 31 7 29 21 -4 22 9 22 41 -3 14 -11 40
-20 58 -20 l33 0 -37 38 -37 38 42 32 42 32 -40 0 c-23 0 -49 -8 -64 -20 -32
-25 -40 -25 -40 0 0 16 -7 20 -30 20 l-30 0 0 -71z"/>
<path d="M2922 4478 c3 -71 4 -73 31 -76 l27 -3 0 75 0 76 -30 0 -31 0 3 -72z"/>
<path d="M3800 4249 c0 -17 4 -28 10 -24 6 3 10 17 10 31 0 13 -4 24 -10 24
-5 0 -10 -14 -10 -31z"/>
<path d="M1047 4243 c9 -54 15 -60 29 -28 19 43 17 55 -10 55 -20 0 -23 -4
-19 -27z"/>
<path d="M1035 4170 c-3 -5 1 -10 10 -10 9 0 13 5 10 10 -3 6 -8 10 -10 10 -2
0 -7 -4 -10 -10z"/>
<path d="M875 4016 c-150 -47 -235 -131 -235 -232 0 -40 -2 -45 -15 -34 -8 7
-15 20 -15 30 0 23 -79 48 -91 28 -26 -40 15 -139 88 -216 25 -26 38 -38 29
-26 -9 12 -14 28 -11 37 4 8 2 18 -4 22 -15 9 -14 28 2 19 7 -4 8 -3 4 2 -5 5
-16 9 -25 9 -10 0 -18 9 -20 23 -5 36 22 26 53 -18 44 -63 157 -165 216 -193
59 -29 101 -34 167 -23 l42 8 -21 -37 c-36 -61 -94 -68 -184 -23 -45 23 -166
114 -178 135 -4 7 -13 13 -19 13 -15 0 39 -49 117 -108 123 -92 218 -115 285
-69 38 26 66 61 75 97 6 24 5 24 -10 -2 -17 -30 -29 -35 -42 -15 -10 14 -11
87 -1 81 8 -5 28 86 28 124 -1 25 -2 24 -20 -13 -11 -22 -19 -50 -20 -63 0
-13 -13 -37 -29 -53 -32 -31 -31 -35 1 -18 15 8 19 8 14 0 -12 -19 -76 -41
-117 -41 -83 0 -241 132 -274 229 -24 71 -20 121 15 170 56 76 195 144 253
122 38 -15 50 -41 26 -62 -19 -16 -18 -17 15 -42 21 -16 43 -48 57 -82 12 -30
26 -55 29 -55 4 0 15 8 24 19 14 15 16 29 10 72 -9 81 -39 135 -87 163 -56 32
-85 36 -132 22z m-257 -412 c-4 -3 -12 5 -18 18 -12 22 -12 22 6 6 10 -10 15
-20 12 -24z"/>
<path d="M3873 4003 c-12 -2 -38 -20 -58 -40 -38 -38 -61 -101 -72 -193 l-6
-55 23 28 c12 15 30 27 39 25 11 -2 23 12 37 43 21 44 68 89 94 89 6 0 2 11
-9 26 -12 15 -21 30 -21 34 0 4 20 11 44 14 37 6 55 2 101 -19 30 -15 69 -38
85 -52 17 -14 30 -20 30 -15 0 23 -87 83 -148 102 -62 19 -92 22 -139 13z"/>
<path d="M853 3913 c9 -2 23 -2 30 0 6 3 -1 5 -18 5 -16 0 -22 -2 -12 -5z"/>
<path d="M754 3868 l-29 -33 35 30 c19 17 37 31 39 33 2 1 0 2 -5 2 -6 0 -23
-15 -40 -32z"/>
<path d="M810 3878 c-33 -17 -51 -35 -67 -68 -46 -92 -28 -155 59 -214 33 -22
44 -24 82 -17 65 12 111 45 130 91 22 55 20 92 -6 126 -13 15 -16 24 -9 19 9
-5 6 3 -5 18 -21 29 -89 67 -120 67 -11 0 -40 -10 -64 -22z"/>
<path d="M3910 3871 c-49 -25 -80 -83 -80 -148 0 -44 5 -58 31 -88 84 -96 247
-59 264 59 22 141 -98 240 -215 177z"/>
<path d="M4126 3817 c3 -10 9 -15 12 -12 3 3 0 11 -7 18 -10 9 -11 8 -5 -6z"/>
<path d="M4273 3803 c-23 -16 -31 -57 -13 -68 14 -9 60 40 60 65 0 24 -16 25
-47 3z"/>
<path d="M4200 3739 c0 -78 -108 -216 -202 -259 -24 -11 -61 -20 -83 -20 -35
0 -38 -2 -24 -15 11 -12 22 -13 54 -4 82 21 154 74 231 173 53 66 60 87 48
134 -9 32 -24 27 -24 -9z"/>
<path d="M4302 3705 c-13 -16 -26 -23 -36 -19 -13 5 -16 -1 -16 -26 0 -86
-195 -270 -300 -282 -31 -4 -56 5 -115 40 -5 3 1 9 14 12 21 5 20 7 -23 38
l-46 33 12 -26 c10 -23 10 -29 -6 -40 -10 -8 -25 -11 -34 -8 -12 5 -12 1 4
-26 19 -33 85 -71 122 -71 93 0 278 135 377 275 63 89 100 167 47 100z"/>
<path d="M1350 2210 c0 -5 5 -10 10 -10 6 0 10 5 10 10 0 6 -4 10 -10 10 -5 0
-10 -4 -10 -10z"/>
<path d="M1350 2160 c0 -5 5 -10 10 -10 6 0 10 5 10 10 0 6 -4 10 -10 10 -5 0
-10 -4 -10 -10z"/>
<path d="M1340 2100 c0 -5 7 -10 16 -10 8 0 12 5 9 10 -3 6 -10 10 -16 10 -5
0 -9 -4 -9 -10z"/>
<path d="M1613 2045 c0 -22 2 -30 4 -17 2 12 2 30 0 40 -3 9 -5 -1 -4 -23z"/>
</g>
</svg>
